<mxfile host="app.diagrams.net" modified="2024-03-21T11:49:52.675Z" agent="Mozilla/5.0 (Windows NT 10.0; Win64; x64) AppleWebKit/537.36 (KHTML, like Gecko) Chrome/123.0.0.0 Safari/537.36" etag="F9pIrEajm0hMxL6Y9PN1" version="23.1.5" type="device">
  <diagram name="Page-1" id="uU4_C94JUy_DUaXeXvBO">
    <mxGraphModel dx="696" dy="368" grid="1" gridSize="10" guides="1" tooltips="1" connect="1" arrows="1" fold="1" page="1" pageScale="1" pageWidth="850" pageHeight="1100" math="0" shadow="0">
      <root>
        <mxCell id="0" />
        <mxCell id="1" parent="0" />
        <mxCell id="Wy5CHTuME5BLfLHEaXng-1" value="Begin" style="ellipse;whiteSpace=wrap;html=1;fillColor=#FFFFFF;strokeColor=#FFFFFF;fontStyle=1" vertex="1" parent="1">
          <mxGeometry x="289" y="30" width="120" height="80" as="geometry" />
        </mxCell>
        <mxCell id="Wy5CHTuME5BLfLHEaXng-3" value="&lt;div style=&quot;&quot;&gt;&lt;font style=&quot;background-color: initial;&quot;&gt;Data collection and&amp;nbsp; &amp;nbsp;Data preprocessing&lt;/font&gt;&lt;span style=&quot;background-color: initial;&quot;&gt;s&lt;/span&gt;&lt;/div&gt;" style="rounded=1;whiteSpace=wrap;html=1;strokeColor=#FFFFFF;fillColor=#FFFFFF;align=center;" vertex="1" parent="1">
          <mxGeometry x="292" y="160" width="120" height="60" as="geometry" />
        </mxCell>
        <mxCell id="Wy5CHTuME5BLfLHEaXng-4" value="Training Data" style="rounded=1;whiteSpace=wrap;html=1;fillColor=#FFFFFF;strokeColor=#FFFFFF;" vertex="1" parent="1">
          <mxGeometry x="11" y="280" width="130" height="80" as="geometry" />
        </mxCell>
        <mxCell id="Wy5CHTuME5BLfLHEaXng-5" value="Test Data" style="rounded=1;whiteSpace=wrap;html=1;fillColor=#FFFFFF;strokeColor=#FFFFFF;" vertex="1" parent="1">
          <mxGeometry x="579" y="280" width="130" height="80" as="geometry" />
        </mxCell>
        <mxCell id="Wy5CHTuME5BLfLHEaXng-6" value="Classification" style="rounded=0;whiteSpace=wrap;html=1;fillColor=#FFFFFF;strokeColor=#FFFFFF;" vertex="1" parent="1">
          <mxGeometry x="240" y="300" width="240" height="60" as="geometry" />
        </mxCell>
        <mxCell id="Wy5CHTuME5BLfLHEaXng-7" value="Classification Technique" style="rounded=1;whiteSpace=wrap;html=1;fillColor=#FFFFFF;strokeColor=#FFFFFF;" vertex="1" parent="1">
          <mxGeometry x="120" y="500" width="120" height="60" as="geometry" />
        </mxCell>
        <mxCell id="Wy5CHTuME5BLfLHEaXng-8" value="Test the model" style="rounded=1;whiteSpace=wrap;html=1;fillColor=#FFFFFF;strokeColor=#FFFFFF;" vertex="1" parent="1">
          <mxGeometry x="480" y="510" width="120" height="60" as="geometry" />
        </mxCell>
        <mxCell id="Wy5CHTuME5BLfLHEaXng-9" value="Result" style="rounded=1;whiteSpace=wrap;html=1;fillColor=#FFFFFF;strokeColor=#FFFFFF;" vertex="1" parent="1">
          <mxGeometry x="300" y="590" width="120" height="60" as="geometry" />
        </mxCell>
        <mxCell id="Wy5CHTuME5BLfLHEaXng-10" value="End" style="ellipse;whiteSpace=wrap;html=1;fillColor=#FFFFFF;strokeColor=#FFFFFF;" vertex="1" parent="1">
          <mxGeometry x="300" y="750" width="120" height="80" as="geometry" />
        </mxCell>
        <mxCell id="Wy5CHTuME5BLfLHEaXng-11" value="" style="endArrow=classic;html=1;rounded=0;strokeColor=#FFFFFF;" edge="1" parent="1" target="Wy5CHTuME5BLfLHEaXng-3">
          <mxGeometry width="50" height="50" relative="1" as="geometry">
            <mxPoint x="350" y="100" as="sourcePoint" />
            <mxPoint x="380" y="170" as="targetPoint" />
          </mxGeometry>
        </mxCell>
        <mxCell id="Wy5CHTuME5BLfLHEaXng-12" value="" style="endArrow=classic;html=1;rounded=0;exitX=0.5;exitY=1;exitDx=0;exitDy=0;strokeColor=#FFFFFF;" edge="1" parent="1" source="Wy5CHTuME5BLfLHEaXng-3">
          <mxGeometry width="50" height="50" relative="1" as="geometry">
            <mxPoint x="320" y="290" as="sourcePoint" />
            <mxPoint x="352" y="300" as="targetPoint" />
          </mxGeometry>
        </mxCell>
        <mxCell id="Wy5CHTuME5BLfLHEaXng-13" value="" style="endArrow=classic;html=1;rounded=0;entryX=1;entryY=0.5;entryDx=0;entryDy=0;exitX=0;exitY=0.333;exitDx=0;exitDy=0;exitPerimeter=0;strokeColor=#FFFFFF;" edge="1" parent="1" source="Wy5CHTuME5BLfLHEaXng-6" target="Wy5CHTuME5BLfLHEaXng-4">
          <mxGeometry width="50" height="50" relative="1" as="geometry">
            <mxPoint x="160" y="340" as="sourcePoint" />
            <mxPoint x="210" y="290" as="targetPoint" />
          </mxGeometry>
        </mxCell>
        <mxCell id="Wy5CHTuME5BLfLHEaXng-14" value="" style="endArrow=classic;html=1;rounded=0;entryX=0.008;entryY=0.625;entryDx=0;entryDy=0;entryPerimeter=0;strokeColor=#FFFFFF;" edge="1" parent="1" target="Wy5CHTuME5BLfLHEaXng-5">
          <mxGeometry width="50" height="50" relative="1" as="geometry">
            <mxPoint x="480" y="330" as="sourcePoint" />
            <mxPoint x="530" y="280" as="targetPoint" />
          </mxGeometry>
        </mxCell>
        <mxCell id="Wy5CHTuME5BLfLHEaXng-15" value="" style="endArrow=classic;html=1;rounded=0;entryX=0.25;entryY=0;entryDx=0;entryDy=0;exitX=0.25;exitY=1;exitDx=0;exitDy=0;strokeColor=#FFFFFF;" edge="1" parent="1" source="Wy5CHTuME5BLfLHEaXng-4" target="Wy5CHTuME5BLfLHEaXng-7">
          <mxGeometry width="50" height="50" relative="1" as="geometry">
            <mxPoint x="120" y="470" as="sourcePoint" />
            <mxPoint x="170" y="420" as="targetPoint" />
          </mxGeometry>
        </mxCell>
        <mxCell id="Wy5CHTuME5BLfLHEaXng-16" value="" style="endArrow=classic;html=1;rounded=0;entryX=0.25;entryY=0;entryDx=0;entryDy=0;exitX=0.75;exitY=1;exitDx=0;exitDy=0;strokeColor=#FFFFFF;" edge="1" parent="1" source="Wy5CHTuME5BLfLHEaXng-5" target="Wy5CHTuME5BLfLHEaXng-8">
          <mxGeometry width="50" height="50" relative="1" as="geometry">
            <mxPoint x="470" y="480" as="sourcePoint" />
            <mxPoint x="520" y="430" as="targetPoint" />
          </mxGeometry>
        </mxCell>
        <mxCell id="Wy5CHTuME5BLfLHEaXng-17" value="" style="endArrow=classic;html=1;rounded=0;entryX=0.003;entryY=0.374;entryDx=0;entryDy=0;entryPerimeter=0;strokeColor=#FFFFFF;" edge="1" parent="1" target="Wy5CHTuME5BLfLHEaXng-8">
          <mxGeometry width="50" height="50" relative="1" as="geometry">
            <mxPoint x="240" y="530" as="sourcePoint" />
            <mxPoint x="290" y="480" as="targetPoint" />
          </mxGeometry>
        </mxCell>
        <mxCell id="Wy5CHTuME5BLfLHEaXng-18" value="" style="endArrow=classic;html=1;rounded=0;entryX=0;entryY=0.25;entryDx=0;entryDy=0;exitX=0.75;exitY=1;exitDx=0;exitDy=0;strokeColor=#FFFFFF;" edge="1" parent="1" source="Wy5CHTuME5BLfLHEaXng-7" target="Wy5CHTuME5BLfLHEaXng-9">
          <mxGeometry width="50" height="50" relative="1" as="geometry">
            <mxPoint x="220" y="630" as="sourcePoint" />
            <mxPoint x="270" y="580" as="targetPoint" />
          </mxGeometry>
        </mxCell>
        <mxCell id="Wy5CHTuME5BLfLHEaXng-19" value="" style="endArrow=classic;html=1;rounded=0;entryX=1;entryY=0.25;entryDx=0;entryDy=0;exitX=0.25;exitY=1;exitDx=0;exitDy=0;strokeColor=#FFFFFF;" edge="1" parent="1" source="Wy5CHTuME5BLfLHEaXng-8" target="Wy5CHTuME5BLfLHEaXng-9">
          <mxGeometry width="50" height="50" relative="1" as="geometry">
            <mxPoint x="410" y="670" as="sourcePoint" />
            <mxPoint x="460" y="620" as="targetPoint" />
          </mxGeometry>
        </mxCell>
        <mxCell id="Wy5CHTuME5BLfLHEaXng-20" value="" style="endArrow=classic;html=1;rounded=0;exitX=0.5;exitY=1;exitDx=0;exitDy=0;entryX=0.5;entryY=0;entryDx=0;entryDy=0;strokeColor=#FFFFFF;" edge="1" parent="1" source="Wy5CHTuME5BLfLHEaXng-9" target="Wy5CHTuME5BLfLHEaXng-10">
          <mxGeometry width="50" height="50" relative="1" as="geometry">
            <mxPoint x="370" y="710" as="sourcePoint" />
            <mxPoint x="420" y="660" as="targetPoint" />
          </mxGeometry>
        </mxCell>
      </root>
    </mxGraphModel>
  </diagram>
</mxfile>
